<svg id="Capa_1" enable-background="new 0 0 423.573 423.573" height="18" viewBox="0 0 423.573 423.573" width="20" xmlns="http://www.w3.org/2000/svg"><g><g><g ><path d="m0 92.418h18.474v4.924h-18.474z"/><path d="m0 116.12h18.474v4.924h-18.474z"/><path d="m0 139.82h18.474v4.924h-18.474z"/><path d="m0 163.573h18.474v4.924h-18.474z"/><path d="m0 187.273h18.474v4.924h-18.474z"/><path d="m0 211.026h18.474v4.924h-18.474z"/><path d="m0 234.726h18.474v4.924h-18.474z"/><path d="m0 258.477h18.474v4.924h-18.474z"/><path d="m0 282.179h18.474v4.924h-18.474z"/><path d="m0 305.881h18.474v4.924h-18.474z"/><path d="m0 329.632h18.474v4.924h-18.474z"/><path d="m0 353.333h18.474v4.924h-18.474z"/><path d="m423.573 364.854-13.398-10.404v7.816h-375.613v-294.461h7.409l-10.404-13.45-10.404 13.45h7.614v300.246h381.398v7.207z"/></g><path d="m48.671 133.832h28.117v228.382h-28.117z" /><path d="m76.788 226.809h16.697v135.456h-16.697z" /><path d="m110.08 220.263h28.117v141.952h-28.117z" /><path d="m138.197 162.455h16.697v199.758h-16.697z" /><path d="m171.541 85.974h28.117v276.241h-28.117z" /><path d="m199.657 106.121h16.697v256.143h-16.697z" /><path d="m232.95 177.225h28.117v185.041h-28.117z" /><path d="m261.067 144.186h16.697v218.08h-16.697z" /><path d="m294.41 190.674h28.117v171.592h-28.117z" /><path d="m322.527 226.809h16.697v135.456h-16.697z" /><path d="m355.819 133.832h28.117v228.382h-28.117z" /><path d="m383.936 226.809h16.697v135.456h-16.697z" /><path d="m310.803 146.013-42.987-51.565-78.411-37.149-78.716 61.562-48.518-10.912 1.066-4.974 46.234 10.404 79.274-61.967 82.624 39.383 39.84 47.807 56.943-54.456 3.502 3.706z" /><path d="m62.12 97.393c-4.317 0-7.816 3.499-7.816 7.816s3.499 7.816 7.816 7.816 7.816-3.499 7.816-7.816-3.5-7.816-7.816-7.816z" /><path d="m110.283 107.695c-4.286-.14-7.875 3.221-8.014 7.508-.14 4.286 3.221 7.875 7.508 8.014 4.286.14 7.875-3.221 8.014-7.508.004-.117.005-.233.004-.35-.053-4.152-3.362-7.529-7.512-7.664z" /><path d="m189.049 48.316c-4.289 0-7.765 3.476-7.765 7.765s3.476 7.765 7.765 7.765 7.765-3.476 7.765-7.765c.001-4.289-3.476-7.765-7.765-7.765z" /><path d="m269.39 84.907c-4.289 0-7.765 3.476-7.765 7.765s3.476 7.765 7.765 7.765 7.765-3.476 7.765-7.765c0-4.288-3.476-7.765-7.765-7.765z" /><path d="m310.245 134.543c-4.289 0-7.765 3.476-7.765 7.765s3.476 7.765 7.765 7.765 7.765-3.476 7.765-7.765c-.028-4.278-3.488-7.737-7.765-7.765z" /><path d="m368.762 79.427c-4.317-.028-7.838 3.448-7.866 7.765s3.448 7.839 7.765 7.867 7.839-3.448 7.867-7.765c0-.017 0-.033 0-.051.028-4.289-3.425-7.788-7.714-7.816-.019 0-.036 0-.052 0z" /></g></g></svg>
