<?xml version="1.0" ?><svg height="18" width="20" id="svg8" version="1.1" viewBox="0 0 8.4666665 8.4666669"  xmlns="http://www.w3.org/2000/svg" xmlns:cc="http://creativecommons.org/ns#" xmlns:dc="http://purl.org/dc/elements/1.1/" xmlns:inkscape="http://www.inkscape.org/namespaces/inkscape" xmlns:rdf="http://www.w3.org/1999/02/22-rdf-syntax-ns#" xmlns:sodipodi="http://sodipodi.sourceforge.net/DTD/sodipodi-0.dtd" xmlns:svg="http://www.w3.org/2000/svg"><defs id="defs2"/><g id="layer1" transform="translate(0,-288.53332)"><path d="M 15.347656,1.2402344 1.3515625,13.242188 C 1.1269418,13.431557 0.99694863,13.710113 0.99609375,14.003906 V 19 c -0.00453,0.858995 1.00457065,1.323634 1.65429685,0.761719 L 4,18.603516 V 30 c 5.52e-5,0.552262 0.4477381,0.999945 1,1 h 7 c 0.552262,-5.5e-5 0.999945,-0.447738 1,-1 V 19 h 6 v 11 c 5.5e-5,0.552262 0.447738,0.999945 1,1 h 7 c 0.552262,-5.5e-5 0.999945,-0.447738 1,-1 V 18.605469 l 1.349609,1.15625 C 29.998987,20.311746 30.994883,19.851011 30.996094,19 v -4.996094 c 0.0016,-0.292218 -0.124718,-0.570512 -0.345703,-0.761718 L 16.654297,1.2402344 c -0.375676,-0.32215054 -0.933017,-0.32039098 -1.306641,0 z m 0.648433,2.0742187 13.007812,11.1464849 v 2.36914 L 16.654287,6.2363271 c -0.375348,-0.3238486 -0.931293,-0.3238486 -1.306641,0 L 2.9960937,16.830076 v -2.36914 z m 0,5.0039063 L 26,16.890625 V 29 H 21 V 18 c -5.5e-5,-0.552262 -0.447738,-0.999945 -1,-1 h -8 c -0.552262,5.5e-5 -0.999945,0.447738 -1,1 V 29 H 6 V 16.888672 Z" id="rect965" style="color:#000000;font-style:normal;font-variant:normal;font-weight:normal;font-stretch:normal;font-size:medium;line-height:normal;font-family:sans-serif;font-variant-ligatures:normal;font-variant-position:normal;font-variant-caps:normal;font-variant-numeric:normal;font-variant-alternates:normal;font-feature-settings:normal;text-indent:0;text-align:start;text-decoration:none;text-decoration-line:none;text-decoration-style:solid;text-decoration-color:#000000;letter-spacing:normal;word-spacing:normal;text-transform:none;writing-mode:lr-tb;direction:ltr;text-orientation:mixed;dominant-baseline:auto;baseline-shift:baseline;text-anchor:start;white-space:normal;shape-padding:0;clip-rule:nonzero;display:inline;overflow:visible;visibility:visible;opacity:1;isolation:auto;mix-blend-mode:normal;color-interpolation:sRGB;color-interpolation-filters:linearRGB;solid-color:#000000;solid-opacity:1;vector-effect:none;fill-opacity:1;fill-rule:nonzero;stroke:none;stroke-width:1.99999988;stroke-linecap:round;stroke-linejoin:round;stroke-miterlimit:4;stroke-dasharray:none;stroke-dashoffset:0;stroke-opacity:1;paint-order:stroke fill markers;color-rendering:auto;image-rendering:auto;shape-rendering:auto;text-rendering:auto;enable-background:accumulate" transform="matrix(0.26458333,0,0,0.26458333,0,288.53332)"/></g></svg>
