<?xml version="1.0" encoding="iso-8859-1"?>
<!-- Generator: Adobe Illustrator 19.0.0, SVG Export Plug-In . SVG Version: 6.00 Build 0)  -->
<svg version="1.1" id="Layer_1" xmlns="http://www.w3.org/2000/svg" xmlns:xlink="http://www.w3.org/1999/xlink" x="0px" y="0px"
	 viewBox="0 0 463 463" style="enable-background:new 0 0 463 463;" xml:space="preserve" height="18" width="20">
<g>
	<g>
		<g>
			<path d="M407.5,0h-160c-6.177,0-11.801,2.399-16,6.31c-4.199-3.911-9.823-6.31-16-6.31h-160C42.542,0,32,10.542,32,23.5v416
				c0,12.958,10.542,23.5,23.5,23.5h160c6.177,0,11.801-2.399,16-6.31c4.199,3.911,9.823,6.31,16,6.31h160
				c12.958,0,23.5-10.542,23.5-23.5v-416C431,10.542,420.458,0,407.5,0z M224,32h-8.5c-4.142,0-7.5,3.358-7.5,7.5
				c0,4.142,3.358,7.5,7.5,7.5h8.5v369h-8.5c-4.142,0-7.5,3.358-7.5,7.5c0,4.142,3.358,7.5,7.5,7.5h8.5v8.5
				c0,4.687-3.813,8.5-8.5,8.5h-160c-4.687,0-8.5-3.813-8.5-8.5v-416c0-4.687,3.813-8.5,8.5-8.5h160c4.687,0,8.5,3.813,8.5,8.5V32z
				 M416,439.5c0,4.687-3.813,8.5-8.5,8.5h-160c-4.687,0-8.5-3.813-8.5-8.5V431h8.5c4.142,0,7.5-3.358,7.5-7.5
				c0-4.142-3.358-7.5-7.5-7.5H239V47h8.5c4.142,0,7.5-3.358,7.5-7.5c0-4.142-3.358-7.5-7.5-7.5H239v-8.5c0-4.687,3.813-8.5,8.5-8.5
				h160c4.687,0,8.5,3.813,8.5,8.5V439.5z"/>
			<path d="M371.5,56h-88C268.336,56,256,68.336,256,83.5s12.336,27.5,27.5,27.5h88c15.164,0,27.5-12.336,27.5-27.5
				S386.664,56,371.5,56z M371.5,96h-88c-6.893,0-12.5-5.607-12.5-12.5S276.607,71,283.5,71h88c6.893,0,12.5,5.607,12.5,12.5
				S378.393,96,371.5,96z"/>
			<path d="M375.5,143c4.142,0,7.5-3.358,7.5-7.5c0-4.142-3.358-7.5-7.5-7.5h-96c-4.142,0-7.5,3.358-7.5,7.5
				c0,4.142,3.358,7.5,7.5,7.5H375.5z"/>
			<path d="M256,207.5c0,4.142,3.358,7.5,7.5,7.5h112c4.142,0,7.5-3.358,7.5-7.5c0-4.142-3.358-7.5-7.5-7.5h-112
				C259.358,200,256,203.358,256,207.5z"/>
			<path d="M263.5,247h80c4.142,0,7.5-3.358,7.5-7.5c0-4.142-3.358-7.5-7.5-7.5h-80c-4.142,0-7.5,3.358-7.5,7.5
				C256,243.642,259.358,247,263.5,247z"/>
			<path d="M391.5,232h-16c-4.142,0-7.5,3.358-7.5,7.5c0,4.142,3.358,7.5,7.5,7.5h16c4.142,0,7.5-3.358,7.5-7.5
				C399,235.358,395.642,232,391.5,232z"/>
			<path d="M263.5,279h112c4.142,0,7.5-3.358,7.5-7.5c0-4.142-3.358-7.5-7.5-7.5h-112c-4.142,0-7.5,3.358-7.5,7.5
				C256,275.642,259.358,279,263.5,279z"/>
			<path d="M263.5,311h80c4.142,0,7.5-3.358,7.5-7.5c0-4.142-3.358-7.5-7.5-7.5h-80c-4.142,0-7.5,3.358-7.5,7.5
				C256,307.642,259.358,311,263.5,311z"/>
			<path d="M391.5,296h-16c-4.142,0-7.5,3.358-7.5,7.5c0,4.142,3.358,7.5,7.5,7.5h16c4.142,0,7.5-3.358,7.5-7.5
				C399,299.358,395.642,296,391.5,296z"/>
			<path d="M263.5,343h112c4.142,0,7.5-3.358,7.5-7.5c0-4.142-3.358-7.5-7.5-7.5h-112c-4.142,0-7.5,3.358-7.5,7.5
				C256,339.642,259.358,343,263.5,343z"/>
			<path d="M343.5,360h-80c-4.142,0-7.5,3.358-7.5,7.5c0,4.142,3.358,7.5,7.5,7.5h80c4.142,0,7.5-3.358,7.5-7.5
				C351,363.358,347.642,360,343.5,360z"/>
			<path d="M391.5,360h-16c-4.142,0-7.5,3.358-7.5,7.5c0,4.142,3.358,7.5,7.5,7.5h16c4.142,0,7.5-3.358,7.5-7.5
				C399,363.358,395.642,360,391.5,360z"/>
			<path d="M127.5,96c-4.142,0-7.5,3.358-7.5,7.5V160h-9v-56.5c0-4.142-3.358-7.5-7.5-7.5c-4.142,0-7.5,3.358-7.5,7.5V160h-9v-56.5
				c0-4.142-3.358-7.5-7.5-7.5c-4.142,0-7.5,3.358-7.5,7.5v72c0,12.958,10.542,23.5,23.5,23.5H96v168.5c0,4.142,3.358,7.5,7.5,7.5
				c4.142,0,7.5-3.358,7.5-7.5V199h0.5c12.958,0,23.5-10.542,23.5-23.5v-72C135,99.358,131.642,96,127.5,96z M120,175.5
				c0,4.687-3.813,8.5-8.5,8.5h-16c-4.687,0-8.5-3.813-8.5-8.5V175h33V175.5z"/>
			<path d="M183.719,110.317C182.903,102.155,176.102,96,167.899,96C159.132,96,152,103.132,152,111.899V367.5
				c0,4.142,3.358,7.5,7.5,7.5c4.142,0,7.5-3.358,7.5-7.5V287h6.987c6.584,0,12.908-2.788,17.349-7.649
				c4.441-4.861,6.648-11.411,6.055-17.968L183.719,110.317z M180.262,269.233c-1.63,1.784-3.858,2.767-6.275,2.767H167V111.899
				c0-0.496,0.403-0.899,0.899-0.899c0.464,0,0.849,0.348,0.888,0.739l13.665,150.995
				C182.67,265.141,181.892,267.449,180.262,269.233z"/>
		</g>
	</g>
</g>
<g>
</g>
<g>
</g>
<g>
</g>
<g>
</g>
<g>
</g>
<g>
</g>
<g>
</g>
<g>
</g>
<g>
</g>
<g>
</g>
<g>
</g>
<g>
</g>
<g>
</g>
<g>
</g>
<g>
</g>
</svg>
